<svg xmlns:xlink="http://www.w3.org/1999/xlink" xmlns="http://www.w3.org/2000/svg" _ngcontent-ng-c3857146845="" width="24" height="24" class="nav-menu-item-link-icon ng-star-inserted"><defs><svg id="api" width="24" height="24" viewBox="0 0 24 24" fill="none" xmlns="http://www.w3.org/2000/svg">
<path fill-rule="evenodd" clip-rule="evenodd" d="M15.7052 6.70538C15.3157 6.31581 14.684 6.31581 14.2945 6.70538C13.9052 7.09466 13.9048 7.72569 14.2937 8.11538L18.1698 12L14.2937 15.8846C13.9048 16.2743 13.9052 16.9053 14.2945 17.2946C14.684 17.6842 15.3157 17.6842 15.7052 17.2946L20.2927 12.7071C20.6833 12.3166 20.6833 11.6834 20.2927 11.2929L15.7052 6.70538Z" fill="currentColor"></path>
<path fill-rule="evenodd" clip-rule="evenodd" d="M8.29477 6.70538C8.68434 6.31581 9.31597 6.31581 9.70554 6.70538C10.0948 7.09466 10.0952 7.72569 9.70631 8.11538L5.83016 12L9.70631 15.8846C10.0952 16.2743 10.0948 16.9053 9.70554 17.2946C9.31597 17.6842 8.68434 17.6842 8.29477 17.2946L3.70726 12.7071C3.31674 12.3166 3.31674 11.6834 3.70726 11.2929L8.29477 6.70538Z" fill="currentColor"></path>
</svg></defs><use _ngcontent-ng-c3857146845="" xlink:href="#api"></use></svg>